# xmcd
#
# Track frame offsets:
#	150
#	10420
#	22537
#	32043
#	45950
#	65692
#	81277
#	92859
#	106588
#	116858
#	130793
#	149973
#	163102
#
# Disc length: 2371 seconds
#
# Revision: 0
# Processed by: cddbd v1.5.2PL0 Copyright (c) Steve Scherf et al.
# Submitted via: dBpowerAMP V4.0
#
DISCID=a909410d
DTITLE=Country Gazette - Out to lunch
DYEAR=1976
DGENRE=Country
TTITLE0=Still feeling blue
TTITLE1=Sure didn't take him long
TTITLE2=Out to lunch
TTITLE3=Melocy for baby
TTITLE4=Sing a sad song
TTITLE5=Sunny side of the mountain
TTITLE6=Down Down Down
TTITLE7=Why you been gone so long
TTITLE8=Forked deer
TTITLE9=Time left to wander
TTITLE10=Last thing on my mind
TTITLE11=Uncle Clooney played the banjo (but mostly out of time)
TTITLE12=Blue light
EXTD=Ariola 444 1976. facsimile of original LP record
EXTT0=
EXTT1=
EXTT2=
EXTT3=
EXTT4=
EXTT5=
EXTT6=
EXTT7=
EXTT8=
EXTT9=
EXTT10=
EXTT11=
EXTT12=
PLAYORDER=
